{
	"asset":{
		"generator":"Khronos glTF Blender I/O v3.5.30",
		"version":"2.0"
	},
	"extensionsUsed":[
		"KHR_materials_specular",
		"KHR_materials_ior"
	],
	"scene":0,
	"scenes":[
		{
			"name":"Scene",
			"nodes":[
				21
			]
		}
	],
	"nodes":[
		{
			"name":"Bone.015",
			"translation":[
				0,
				0.32608699798583984,
				-4.440892098500626e-16
			]
		},
		{
			"children":[
				0
			],
			"name":"Bone.006",
			"rotation":[
				0,
				3.552713678800501e-15,
				0,
				1
			],
			"translation":[
				0,
				0.23034334182739258,
				0
			]
		},
		{
			"children":[
				1
			],
			"name":"Bone.005",
			"rotation":[
				0,
				-3.552713678800501e-15,
				0,
				1
			],
			"scale":[
				1,
				0.9999999403953552,
				1
			],
			"translation":[
				0,
				0.30658194422721863,
				0
			]
		},
		{
			"children":[
				2
			],
			"name":"Bone.001",
			"rotation":[
				-2.6692537957728746e-08,
				-2.6692537957728746e-08,
				-0.7071067690849304,
				0.7071067690849304
			],
			"translation":[
				0,
				0.4908067286014557,
				0
			]
		},
		{
			"name":"Bone.007",
			"translation":[
				0,
				0.3146781921386719,
				0
			]
		},
		{
			"children":[
				4
			],
			"name":"Bone.004",
			"translation":[
				0,
				0.2296542525291443,
				0
			]
		},
		{
			"children":[
				5
			],
			"name":"Bone.003",
			"translation":[
				0,
				0.30000001192092896,
				0
			]
		},
		{
			"children":[
				6
			],
			"name":"Bone.002",
			"rotation":[
				-2.6692537957728746e-08,
				2.6692537957728746e-08,
				0.7071067690849304,
				0.7071067690849304
			],
			"translation":[
				0,
				0.4908067286014557,
				0
			]
		},
		{
			"name":"Bone.018",
			"translation":[
				0,
				0.29999998211860657,
				0
			]
		},
		{
			"children":[
				8
			],
			"name":"Bone.017",
			"translation":[
				0,
				0.4908067286014557,
				0
			]
		},
		{
			"children":[
				3,
				7,
				9
			],
			"name":"Bone",
			"translation":[
				0,
				-0.4399382174015045,
				0
			]
		},
		{
			"name":"Bone.019",
			"rotation":[
				0.5,
				-0.4999999403953552,
				0.5,
				0.5000000596046448
			],
			"translation":[
				2.4182305047304453e-09,
				0.30000001192092896,
				1.3064475723467694e-08
			]
		},
		{
			"children":[
				11
			],
			"name":"Bone.013",
			"rotation":[
				2.1774027025855958e-09,
				8.015176300446569e-10,
				0.028366435319185257,
				0.9995976090431213
			],
			"scale":[
				0.9999999403953552,
				0.9999999403953552,
				1
			],
			"translation":[
				2.142520827419503e-09,
				0.42638424038887024,
				1.9350805402496007e-09
			]
		},
		{
			"children":[
				12
			],
			"name":"Bone.010",
			"rotation":[
				-0.7068222165107727,
				-0.020058123394846916,
				-0.02005806937813759,
				0.7068222761154175
			],
			"scale":[
				0.9999999403953552,
				0.9999999403953552,
				1
			],
			"translation":[
				0,
				0.055387891829013824,
				0
			]
		},
		{
			"children":[
				13
			],
			"name":"Bone.009",
			"translation":[
				0,
				0.10000000149011612,
				0
			]
		},
		{
			"children":[
				14
			],
			"name":"Bone.008",
			"rotation":[
				-0.5,
				-0.5,
				-0.5,
				0.5
			],
			"translation":[
				0,
				-0.4399382174015045,
				0
			]
		},
		{
			"name":"Bone.020",
			"rotation":[
				0.5000000596046448,
				0.5,
				-0.4999999403953552,
				0.5
			],
			"scale":[
				0.9999998807907104,
				0.9999997615814209,
				1
			],
			"translation":[
				3.172888618507841e-10,
				0.30000001192092896,
				-1.8094548082103756e-09
			]
		},
		{
			"children":[
				16
			],
			"name":"Bone.014",
			"rotation":[
				2.1100927671824365e-09,
				4.794411534447818e-10,
				-0.02686779387295246,
				0.9996390342712402
			],
			"scale":[
				1,
				0.9999998807907104,
				1
			],
			"translation":[
				-3.47517570276068e-11,
				0.42631351947784424,
				1.8446156824225568e-09
			]
		},
		{
			"children":[
				17
			],
			"name":"Bone.012",
			"rotation":[
				-0.7068515419960022,
				0.01899842731654644,
				0.01899837516248226,
				0.7068515419960022
			],
			"scale":[
				1,
				0.9999999403953552,
				1
			],
			"translation":[
				0,
				0.15275037288665771,
				0
			]
		},
		{
			"children":[
				18
			],
			"name":"Bone.011",
			"rotation":[
				-0.5,
				0.5,
				0.5,
				0.5
			],
			"translation":[
				0,
				-0.4399382174015045,
				0
			]
		},
		{
			"mesh":0,
			"name":"mechafireball",
			"skin":0
		},
		{
			"children":[
				20,
				10,
				15,
				19
			],
			"name":"Armature"
		}
	],
	"materials":[
		{
			"doubleSided":true,
			"extensions":{
				"KHR_materials_specular":{
					"specularColorFactor":[
						2.371357614441398,
						2.371357614441398,
						2.371357614441398
					]
				},
				"KHR_materials_ior":{
					"ior":1.4500000476837158
				}
			},
			"name":"none",
			"pbrMetallicRoughness":{
				"baseColorTexture":{
					"index":0
				},
				"roughnessFactor":0.5
			}
		}
	],
	"meshes":[
		{
			"name":"sphere.000",
			"primitives":[
				{
					"attributes":{
						"POSITION":0,
						"TEXCOORD_0":1,
						"NORMAL":2,
						"JOINTS_0":3,
						"WEIGHTS_0":4
					},
					"indices":5,
					"material":0
				}
			]
		}
	],
	"textures":[
		{
			"sampler":0,
			"source":0
		}
	],
	"images":[
		{
			"bufferView":6,
			"mimeType":"image/png",
			"name":"mechatex"
		}
	],
	"skins":[
		{
			"inverseBindMatrices":6,
			"joints":[
				10,
				3,
				2,
				1,
				0,
				7,
				6,
				5,
				4,
				9,
				8,
				15,
				14,
				13,
				12,
				11,
				19,
				18,
				17,
				16
			],
			"name":"Armature"
		}
	],
	"accessors":[
		{
			"bufferView":0,
			"componentType":5126,
			"count":1917,
			"max":[
				1.686726450920105,
				1.254072666168213,
				0.31249985098838806
			],
			"min":[
				-1.0806974172592163,
				-1.1998720169067383,
				-0.3336087167263031
			],
			"type":"VEC3"
		},
		{
			"bufferView":1,
			"componentType":5126,
			"count":1917,
			"type":"VEC2"
		},
		{
			"bufferView":2,
			"componentType":5126,
			"count":1917,
			"type":"VEC3"
		},
		{
			"bufferView":3,
			"componentType":5121,
			"count":1917,
			"type":"VEC4"
		},
		{
			"bufferView":4,
			"componentType":5126,
			"count":1917,
			"type":"VEC4"
		},
		{
			"bufferView":5,
			"componentType":5123,
			"count":4722,
			"type":"SCALAR"
		},
		{
			"bufferView":7,
			"componentType":5126,
			"count":20,
			"type":"MAT4"
		}
	],
	"bufferViews":[
		{
			"buffer":0,
			"byteLength":23004,
			"byteOffset":0,
			"target":34962
		},
		{
			"buffer":0,
			"byteLength":15336,
			"byteOffset":23004,
			"target":34962
		},
		{
			"buffer":0,
			"byteLength":23004,
			"byteOffset":38340,
			"target":34962
		},
		{
			"buffer":0,
			"byteLength":7668,
			"byteOffset":61344,
			"target":34962
		},
		{
			"buffer":0,
			"byteLength":30672,
			"byteOffset":69012,
			"target":34962
		},
		{
			"buffer":0,
			"byteLength":9444,
			"byteOffset":99684,
			"target":34963
		},
		{
			"buffer":0,
			"byteLength":10594,
			"byteOffset":109128
		},
		{
			"buffer":0,
			"byteLength":1280,
			"byteOffset":119724
		}
	],
	"samplers":[
		{
			"magFilter":9728,
			"minFilter":9984
		}
	],
	"buffers":[
		{
			"byteLength":121004,
			"uri":"data:application/octet-stream;base64,"
		}
	]
}
